<svg version="1" xmlns="http://www.w3.org/2000/svg" width="960" height="960" viewBox="0 0 720.000000 720.000000"><path d="M330.5.6c-1.6.2-7.3.9-12.5 1.5-40.3 4.4-84.4 17.8-122 37-34.3 17.5-62.1 37.8-90.6 66.3-22.4 22.4-38.9 43.3-53.8 68.1-26.5 43.9-42.9 91.7-49.8 145C0 332 0 388 1.8 401.5c6.9 53.3 23.3 101.1 49.8 145 14.9 24.8 31.4 45.7 53.8 68.1 22.4 22.4 43.3 38.9 68.1 53.8 43.9 26.5 91.7 42.9 145 49.8 13.5 1.8 69.5 1.8 83 0 53.3-6.9 101.1-23.3 145-49.8 24.8-14.9 45.7-31.4 68.1-53.8 22.4-22.4 38.9-43.3 53.8-68.1 26.5-43.9 42.9-91.7 49.8-145 .8-6.4 1.3-21.4 1.3-41.5 0-38.8-2-56.6-10.2-88.5-13.1-51.4-35.1-95.3-69.5-138.8-10.4-13.1-39.4-42.1-52.5-52.5-54.8-43.3-111.4-67.7-180.9-77.8-10.3-1.5-68-2.9-75.9-1.8zm34.3 130.1c10.3 2.5 18.9 4.7 19 4.9.2.1-3.1 14.3-7.3 31.4-4.3 17.2-7.4 31.5-6.9 31.9.7.6 23.9 6.4 29.8 7.4.6.1 4.6-13.7 8.9-30.8 4.3-17 8-31.2 8.2-31.4.4-.4 38.5 8.9 38.5 9.4 0 .1-3.4 14.2-7.6 31.1-4.2 17-7.7 31.5-7.8 32.2-.1.8 3.1 2.5 7.7 4.2 31.6 11.6 55.1 28.7 64.5 46.7 5.9 11.3 7.5 19.2 6.9 32.8-1.5 32.2-16.7 54.7-42.6 63.4l-8.4 2.8 5.8 3.3c13.7 7.8 25.1 19.1 30.8 30.5 7 14.1 8.1 30.6 3.3 49.8-9.5 37.6-28.6 58.9-60.5 67.5-8.8 2.4-11.3 2.6-30.6 2.6-17.4.1-23.6-.3-35.8-2.3-8.3-1.3-15.2-2-15.6-1.5-.5.5-4.3 15.1-8.6 32.4-4.3 17.3-7.9 31.6-7.9 31.7-.3.4-37.1-9-37.9-9.7-.4-.4 2.8-15 7.2-32.4 5.4-21.7 7.5-31.9 6.7-32.2-4-1.5-30.7-8-31-7.5-.2.3-3.8 14.8-8.1 32.1s-7.9 31.6-8 31.8c-.2.2-37.6-8.8-38.3-9.3-.1-.1 3.3-14.8 7.7-32.6s7.6-32.7 7.3-33c-.4-.4-17.9-4.9-39-10.2-21.1-5.2-38.6-9.7-38.8-10-.3-.3 3.1-9 7.6-19.4 4.6-10.3 8.8-20.2 9.6-21.9l1.3-3.2 14.8 3.9c16.4 4.2 20 4.6 24.3 2.4 6.4-3.3 7-5.1 20.6-59.8C264.5 330 267.8 318 269 318c1.2 0 1.2-.2.2-.9-1-.6.7-8.6 7.8-36.9 4.9-19.9 9-38.1 9-40.5 0-2.6-.9-6.1-2.3-8.8-3.6-6.8-9.8-9.9-28.7-14.5-8.8-2.2-15.8-4.4-15.7-4.9.2-.6 2.6-9.9 5.3-20.8 2.7-10.8 5.1-19.7 5.4-19.7.3 0 18.1 4.5 39.5 9.9 21.5 5.4 39.3 9.6 39.6 9.2.3-.3 4.1-14.9 8.3-32.4 4.3-17.4 8-31.7 8.2-31.7.2 0 8.9 2.1 19.2 4.7z"/><path d="M357.1 248.7c-.6 2.1-4.9 19.3-9.6 38.3-4.7 19-8.8 35.2-9.1 36.1-.4 1.4 2 2.3 14.7 5.4 20.9 5.1 30.4 6.5 43.9 6.5 22.8 0 35-6.1 41.9-21 2.2-4.7 2.5-6.9 2.6-15 0-11.9-2.1-16.8-11-25.5-10.4-10.2-26.8-17.5-54.5-24.1-8-1.9-15.3-3.7-16.2-4-1.3-.4-1.9.4-2.7 3.3zM317.6 406.5c-5.8 23.4-10.6 43.1-10.6 43.8 0 1.5 25 8.1 42 11.2 50.4 9.1 78.4-2.5 80.7-33.6.7-8.7-1.5-16-7-23.6-11.3-15.3-34.9-26.5-76.6-36.4-9.1-2.1-16.9-3.9-17.2-3.9-.4 0-5.4 19.1-11.3 42.5z"/></svg>